<?xml version="1.0" encoding="UTF-8"?><svg id="uuid-cae1de84-46d3-43f8-a9f2-662ac19cb415" xmlns="http://www.w3.org/2000/svg" viewBox="0 0 110 44" width="110" height="44"><g id="uuid-216b880c-db52-40bd-a08a-d0e9deef1282"><path d="m23.26,15.36V.94c6.6.46,12.37,3.96,15.92,9.11l-12.51,7.22c-.91-.94-2.09-1.62-3.41-1.91Zm-1.47,2.78c-2.13,0-3.86,1.73-3.86,3.86s1.73,3.86,3.86,3.86,3.86-1.73,3.86-3.86-1.73-3.86-3.86-3.86ZM4.31,10.16l12.5,7.22c.86-.93,1.97-1.61,3.23-1.95V.96c-6.53.54-12.23,4.06-15.72,9.2Zm-1.58,20.93l12.52-7.23c-.17-.59-.27-1.22-.27-1.87s.09-1.23.25-1.81L2.7,12.96c-1.3,2.74-2.04,5.81-2.04,9.04s.74,6.34,2.06,9.09Zm1.61,2.79c3.5,5.11,9.18,8.61,15.69,9.15v-14.47c-1.23-.33-2.33-1-3.18-1.9l-12.5,7.22Zm34.8.12l-12.52-7.23c-.9.92-2.07,1.58-3.37,1.87v14.42c6.58-.46,12.33-3.94,15.89-9.06Zm3.87-16.63c.88,1.08,1.38,2.88,1.38,5.02,0,2.28-.7,4.16-1.96,5.24-1,.84-2.56,1.32-4.42,1.32-2.5,0-4.5-.8-5.54-2.22-.82-1.12-1.24-2.62-1.24-4.46,0-2.48.66-4.4,1.9-5.44,1.04-.9,2.72-1.4,4.68-1.4,2.3,0,4.2.7,5.2,1.94Zm-8,1.6c-.44.66-.66,1.74-.66,3.2,0,3.12,1.08,4.54,3.48,4.54s3.44-1.42,3.44-4.5-1.06-4.52-3.44-4.52c-1.26,0-2.26.46-2.82,1.28Zm14.1,9.9h-2.7v-13.34h3.62l5.32,9.94v-9.94h2.7v13.34h-3.48l-5.46-9.78v9.78Zm21.74,0h-4.64c-2.2,0-3.26-.3-4.3-1.2-1.24-1.08-1.9-2.98-1.9-5.44,0-2.94,1.02-5.12,2.8-6.04.8-.4,2.14-.66,3.52-.66h4.52v2.38h-4.18c-1.3,0-2.18.32-2.8,1.02-.46.54-.72,1.6-.72,3.04,0,1.88.4,3.28,1.14,3.88.54.42,1.36.64,2.48.64h4.08v2.38Zm12.02-10.96h-3.7c-2,.02-2.6.2-3.22.98-.4.56-.5.9-.58,2.16h7.5v2.38h-7.5c.22,2.32,1.18,3.06,3.92,3.06h3.58v2.38h-3.7c-2.72,0-4.1-.36-5.12-1.36-1.22-1.18-1.9-3.1-1.9-5.38s.72-4.14,2.14-5.42c.98-.88,1.92-1.18,3.78-1.18h4.8v2.38Zm5.08,10.96h-2.84v-13.34h6.66c2.28,0,3.12.24,3.98,1.14.82.86,1.26,1.98,1.26,3.2,0,1.36-.52,2.64-1.4,3.42-.78.7-1.54.92-3.1.92h-4.56v4.66Zm3.86-7.04c.72,0,1.16-.1,1.46-.34.38-.3.62-.96.62-1.72,0-.86-.34-1.48-.94-1.72-.24-.1-.58-.14-1.08-.14h-3.92v3.92h3.86Zm5.92-3.92v-2.38h11.5v2.38h-4.4v10.96h-2.84v-10.96h-4.26Z" fill="#232323"/></g></svg>
