<?xml version="1.0" standalone="no"?>
<!DOCTYPE svg PUBLIC "-//W3C//DTD SVG 20010904//EN"
 "http://www.w3.org/TR/2001/REC-SVG-20010904/DTD/svg10.dtd">
<svg version="1.0" xmlns="http://www.w3.org/2000/svg"
 width="386.000000pt" height="117.000000pt" viewBox="0 0 386.000000 117.000000"
 preserveAspectRatio="xMidYMid meet">

<g transform="translate(0.000000,117.000000) scale(0.100000,-0.100000)"
fill="#000000" stroke="none">
<path d="M1347 1016 c-81 -30 -117 -93 -125 -223 l-5 -83 -28 0 c-29 0 -29 -1
-29 -60 l0 -60 30 0 30 0 0 -165 0 -165 80 0 80 0 0 165 0 165 50 0 50 0 0
-165 0 -165 75 0 75 0 0 225 0 225 -125 0 -125 0 0 74 c0 76 13 106 45 106 23
0 45 -12 45 -24 0 -17 40 -52 68 -61 48 -14 112 37 112 90 0 34 -30 73 -65 85
-20 7 -39 10 -42 7 -3 -3 -21 3 -41 13 -52 26 -110 32 -155 16z"/>
<path d="M1855 1021 c-88 -21 -127 -87 -133 -218 l-4 -93 -34 0 -34 0 0 -60 0
-60 35 0 35 0 0 -165 0 -165 75 0 75 0 0 165 0 165 49 0 c56 0 61 7 61 76 l0
44 -56 0 -57 0 5 75 c6 89 19 109 64 100 32 -5 34 -4 59 44 14 28 25 53 25 56
0 9 -61 32 -100 38 -19 3 -49 2 -65 -2z"/>
<path d="M380 795 l0 -85 -35 0 -35 0 0 -60 0 -60 35 0 35 0 0 -116 c0 -88 4
-125 17 -151 23 -48 66 -73 129 -73 46 0 114 16 114 26 0 2 -7 31 -16 63 -15
53 -18 57 -42 53 -40 -8 -52 19 -52 115 l0 83 50 0 50 0 0 60 0 60 -50 0 -50
0 0 85 0 85 -75 0 -75 0 0 -85z"/>
<path d="M745 701 c-80 -36 -126 -116 -126 -216 0 -101 41 -174 123 -216 68
-35 173 -22 231 29 16 14 17 13 17 -11 0 -27 0 -27 75 -27 l75 0 0 225 0 225
-75 0 c-55 0 -76 -4 -82 -15 -8 -13 -14 -12 -48 5 -50 26 -136 26 -190 1z
m214 -145 c20 -21 26 -36 26 -72 0 -39 -5 -50 -33 -75 -71 -63 -172 -16 -172
82 0 22 10 41 35 66 32 32 40 35 77 30 26 -3 51 -15 67 -31z"/>
</g>
</svg>
